<svg width="1280" height="640" viewBox="0 0 1280 640" xmlns="http://www.w3.org/2000/svg">
  <defs>
    <linearGradient id="bg" x1="0%" y1="0%" x2="100%" y2="100%">
      <stop offset="0%" style="stop-color:#0a0a0f"/>
      <stop offset="50%" style="stop-color:#0d0d1a"/>
      <stop offset="100%" style="stop-color:#050510"/>
    </linearGradient>
    <linearGradient id="accent1" x1="0%" y1="0%" x2="100%" y2="0%">
      <stop offset="0%" style="stop-color:#ff6600"/>
      <stop offset="50%" style="stop-color:#ff8800"/>
      <stop offset="100%" style="stop-color:#ffcc00"/>
    </linearGradient>
    <linearGradient id="glow1" x1="0%" y1="0%" x2="100%" y2="100%">
      <stop offset="0%" style="stop-color:#ff8800;stop-opacity:0.12"/>
      <stop offset="100%" style="stop-color:#ff8800;stop-opacity:0"/>
    </linearGradient>
    <filter id="neonGlow">
      <feGaussianBlur stdDeviation="6" result="coloredBlur"/>
      <feMerge>
        <feMergeNode in="coloredBlur"/>
        <feMergeNode in="SourceGraphic"/>
      </feMerge>
    </filter>
  </defs>

  <rect width="1280" height="640" fill="url(#bg)"/>

  <g opacity="0.3">
    <line x1="0" y1="80" x2="1280" y2="80" stroke="#ff8800" stroke-opacity="0.04" stroke-width="0.5"/>
    <line x1="0" y1="160" x2="1280" y2="160" stroke="#ff8800" stroke-opacity="0.04" stroke-width="0.5"/>
    <line x1="0" y1="240" x2="1280" y2="240" stroke="#ff8800" stroke-opacity="0.04" stroke-width="0.5"/>
    <line x1="0" y1="320" x2="1280" y2="320" stroke="#ff8800" stroke-opacity="0.04" stroke-width="0.5"/>
    <line x1="0" y1="400" x2="1280" y2="400" stroke="#ff8800" stroke-opacity="0.04" stroke-width="0.5"/>
    <line x1="0" y1="480" x2="1280" y2="480" stroke="#ff8800" stroke-opacity="0.04" stroke-width="0.5"/>
    <line x1="0" y1="560" x2="1280" y2="560" stroke="#ff8800" stroke-opacity="0.04" stroke-width="0.5"/>
    <line x1="160" y1="0" x2="160" y2="640" stroke="#ff8800" stroke-opacity="0.04" stroke-width="0.5"/>
    <line x1="320" y1="0" x2="320" y2="640" stroke="#ff8800" stroke-opacity="0.04" stroke-width="0.5"/>
    <line x1="480" y1="0" x2="480" y2="640" stroke="#ff8800" stroke-opacity="0.04" stroke-width="0.5"/>
    <line x1="640" y1="0" x2="640" y2="640" stroke="#ff8800" stroke-opacity="0.04" stroke-width="0.5"/>
    <line x1="800" y1="0" x2="800" y2="640" stroke="#ff8800" stroke-opacity="0.04" stroke-width="0.5"/>
    <line x1="960" y1="0" x2="960" y2="640" stroke="#ff8800" stroke-opacity="0.04" stroke-width="0.5"/>
    <line x1="1120" y1="0" x2="1120" y2="640" stroke="#ff8800" stroke-opacity="0.04" stroke-width="0.5"/>
  </g>

  <circle cx="200" cy="320" r="280" fill="url(#glow1)" />
  <circle cx="1080" cy="320" r="280" fill="url(#glow1)" />

  <rect x="0" y="0" width="1280" height="3" fill="url(#accent1)"/>

  <!-- GRAVITAS ASCII -->
  <text x="640" y="145" font-family="'Courier New', monospace" font-size="18" fill="#ff8800" fill-opacity="0.22" text-anchor="middle" letter-spacing="6">
    ██████  ██████  █████  ██    ██ ██ ████████  █████  ███████
  </text>
  <text x="640" y="168" font-family="'Courier New', monospace" font-size="18" fill="#ff8800" fill-opacity="0.22" text-anchor="middle" letter-spacing="6">
    ██   ██ ██   ██ ██   ██ ██    ██ ██    ██    ██   ██ ██
  </text>
  <text x="640" y="191" font-family="'Courier New', monospace" font-size="18" fill="#ff8800" fill-opacity="0.22" text-anchor="middle" letter-spacing="6">
    ██████  ██████  ███████ ██    ██ ██    ██    ███████ ███████
  </text>
  <text x="640" y="214" font-family="'Courier New', monospace" font-size="18" fill="#ff8800" fill-opacity="0.22" text-anchor="middle" letter-spacing="6">
    ██   ██ ██   ██ ██   ██ ██    ██ ██    ██    ██   ██      ██
  </text>
  <text x="640" y="237" font-family="'Courier New', monospace" font-size="18" fill="#ff8800" fill-opacity="0.22" text-anchor="middle" letter-spacing="6">
    ██   ██ ██   ██ ██   ██  ██████  ██    ██    ██   ██ ███████
  </text>

  <!-- Main Title -->
  <text x="640" y="320" font-family="'Courier New', monospace" font-size="52" fill="#ff8800" text-anchor="middle" font-weight="bold" filter="url(#neonGlow)">
    GRAVITAS
  </text>

  <!-- Tagline -->
  <text x="640" y="375" font-family="'Courier New', monospace" font-size="22" fill="#888899" text-anchor="middle" letter-spacing="5">
    INTELLIGENCE SYNTHESIS ENGINE
  </text>

  <text x="640" y="420" font-family="'Courier New', monospace" font-size="15" fill="#ffcc00" fill-opacity="0.5" text-anchor="middle" letter-spacing="2">
    V1-Scrape  V2-Scan  V3-Recon  V4-XRay  V5-Analyze  V6-Correlate  V7-Pivot  V8-Report
  </text>

  <rect x="400" y="445" width="480" height="1" fill="url(#accent1)"/>

  <text x="640" y="490" font-family="'Courier New', monospace" font-size="14" fill="#444466" text-anchor="middle">
    github.com/DarkMatter-Security/GRAVITAS
  </text>

  <!-- Corner marks -->
  <rect x="40" y="40" width="30" height="2" fill="#ff8800" fill-opacity="0.4"/>
  <rect x="40" y="40" width="2" height="30" fill="#ff8800" fill-opacity="0.4"/>
  <rect x="1240" y="40" width="2" height="30" fill="#ffcc00" fill-opacity="0.4"/>
  <rect x="1210" y="40" width="30" height="2" fill="#ffcc00" fill-opacity="0.4"/>
  <rect x="40" y="600" width="30" height="2" fill="#ff6600" fill-opacity="0.4"/>
  <rect x="40" y="570" width="2" height="30" fill="#ff6600" fill-opacity="0.4"/>
  <rect x="1240" y="570" width="2" height="30" fill="#ff6600" fill-opacity="0.4"/>
  <rect x="1210" y="600" width="30" height="2" fill="#ff6600" fill-opacity="0.4"/>

  <line x1="80" y1="80" x2="80" y2="560" stroke="#ff8800" stroke-opacity="0.08" stroke-width="1"/>
  <line x1="1200" y1="80" x2="1200" y2="560" stroke="#ffcc00" stroke-opacity="0.08" stroke-width="1"/>
</svg>
